<?xml version="1.0" standalone="no"?>
<!DOCTYPE svg PUBLIC "-//W3C//DTD SVG 20010904//EN"
 "http://www.w3.org/TR/2001/REC-SVG-20010904/DTD/svg10.dtd">
<svg version="1.0" xmlns="http://www.w3.org/2000/svg"
 width="292.000000pt" height="82.000000pt" viewBox="0 0 292.000000 82.000000"
 preserveAspectRatio="xMidYMid meet">

<g transform="translate(0.000000,82.000000) scale(0.100000,-0.100000)"
fill="#000000" stroke="none">
<path d="M1911 793 c-1 -37 4 -40 31 -16 10 9 18 12 18 6 0 -5 7 -18 15 -29
14 -16 14 -14 0 14 -16 32 -17 33 -35 17 -18 -16 -19 -15 -23 12 -4 27 -4 27
-6 -4z"/>
<path d="M2003 813 c-27 -5 -27 -9 -8 -43 16 -28 20 -19 5 11 -9 16 -7 19 10
19 11 0 20 5 20 10 0 6 -1 9 -2 9 -2 -1 -13 -4 -25 -6z"/>
<path d="M2533 600 c-176 -37 -246 -194 -133 -301 47 -45 115 -69 194 -69 108
0 195 39 236 105 24 39 27 113 5 155 -42 81 -186 134 -302 110z m91 -52 c51
-23 81 -128 55 -195 -37 -98 -127 -97 -164 2 -25 64 -14 128 30 172 37 37 43
38 79 21z"/>
<path d="M873 581 c-73 -25 -118 -63 -139 -116 -23 -60 -7 -115 46 -166 88
-84 263 -94 372 -22 59 40 81 83 76 150 -4 51 -9 60 -50 99 -75 71 -196 93
-305 55z m139 -42 c25 -13 57 -84 58 -126 0 -71 -44 -133 -95 -133 -75 0 -120
119 -79 206 27 57 71 77 116 53z"/>
<path d="M55 568 c1 -19 9 -24 44 -28 l43 -5 78 -145 78 -145 104 -3 103 -3
81 153 82 153 41 3 c33 3 41 7 41 23 0 18 -8 19 -125 19 -118 0 -125 -1 -125
-20 0 -16 7 -20 35 -20 19 0 35 -2 35 -4 0 -11 -112 -216 -118 -216 -7 0 -115
186 -120 207 -2 8 0 13 5 12 4 -1 25 -1 46 0 30 1 37 5 37 21 0 19 -7 20 -183
20 l-184 0 2 -22z"/>
<path d="M1262 568 c2 -19 10 -24 46 -26 l42 -3 0 -125 0 -124 -45 0 c-41 0
-45 -2 -45 -25 l0 -25 250 0 250 0 0 80 c0 79 0 80 -25 80 -19 0 -25 -5 -25
-21 0 -12 -15 -36 -34 -55 -32 -32 -38 -34 -100 -34 l-67 0 3 128 c2 93 6 127
16 128 6 1 23 2 37 3 18 1 25 7 25 21 0 19 -7 20 -166 20 l-165 0 3 -22z"/>
<path d="M1680 566 c0 -22 5 -25 43 -28 l42 -3 78 -147 78 -148 103 0 103 0
81 152 80 153 41 3 c33 3 41 7 41 23 0 18 -8 19 -124 19 -119 0 -125 -1 -123
-20 1 -16 8 -20 34 -20 18 0 33 -3 33 -6 0 -12 -112 -214 -118 -214 -7 0 -115
186 -120 208 -2 7 2 12 10 11 7 -1 28 -1 46 0 25 1 32 5 32 21 0 19 -7 20
-180 20 l-180 0 0 -24z"/>
</g>
</svg>
