<?xml version="1.0" standalone="no"?>
<!DOCTYPE svg PUBLIC "-//W3C//DTD SVG 20010904//EN"
 "http://www.w3.org/TR/2001/REC-SVG-20010904/DTD/svg10.dtd">
<svg version="1.0" xmlns="http://www.w3.org/2000/svg"
 width="283.000000pt" height="87.000000pt" viewBox="0 0 283.000000 87.000000"
 preserveAspectRatio="xMidYMid meet">

<g transform="translate(0.000000,87.000000) scale(0.100000,-0.100000)"
fill="#000000" stroke="none">
<path d="M2727 742 c-10 -10 -17 -24 -17 -30 0 -14 28 -42 42 -42 6 0 0 9 -13
19 -19 16 -22 23 -13 37 15 25 29 27 48 9 13 -13 14 -21 4 -38 -10 -20 -10
-21 5 -8 23 18 21 37 -5 55 -28 20 -31 20 -51 -2z"/>
<path d="M70 735 c-7 -8 -18 -15 -25 -15 -20 0 -22 -46 -17 -347 l5 -283 1318
0 1319 0 0 330 0 330 -1294 0 c-1138 0 -1295 -2 -1306 -15z m2565 -310 l0
-290 -1287 -3 -1288 -2 0 295 0 295 1288 -2 1287 -3 0 -290z"/>
<path d="M110 423 l0 -248 1237 3 1238 2 0 245 0 245 -1237 0 -1238 0 0 -247z
m350 141 c47 -47 41 -128 -13 -171 l-25 -20 43 -54 c25 -30 44 -57 45 -61 0
-5 -25 -8 -55 -8 l-54 0 -58 72 -58 72 -5 -70 -5 -69 -45 0 -45 0 -3 160 c-1
87 -1 164 1 170 3 6 48 8 130 5 111 -4 129 -8 147 -26z m398 -141 c34 -84 62
-157 62 -163 0 -5 -23 -10 -50 -10 -45 0 -52 3 -60 25 -9 23 -14 25 -74 25
-60 0 -64 -2 -70 -25 -6 -22 -11 -25 -56 -25 -33 0 -50 4 -50 12 0 7 28 83 63
170 l62 157 45 3 c25 2 50 -1 56 -7 6 -5 38 -79 72 -162z m1181 148 c62 -44
89 -150 57 -224 -19 -44 -68 -88 -108 -96 -49 -10 -125 3 -156 26 -46 35 -67
81 -66 149 1 74 28 125 82 154 52 28 145 23 191 -9z m-880 -81 l56 -95 3 98 3
97 44 0 45 0 0 -170 0 -170 -68 0 -69 0 -52 100 c-29 55 -55 100 -57 100 -3 0
-4 -44 -3 -97 l2 -98 -47 -3 -46 -3 0 171 0 171 67 -3 67 -3 55 -95z m468 80
c59 -26 83 -69 83 -145 0 -76 -23 -122 -76 -149 -31 -16 -58 -20 -144 -21
l-105 0 -3 168 -2 167 102 0 c80 0 113 -5 145 -20z m732 -80 l56 -95 3 98 3
97 44 0 45 0 0 -170 0 -171 -67 3 -68 3 -51 93 c-29 51 -53 95 -55 97 -2 2 -4
-40 -4 -93 l0 -97 -47 -3 -48 -3 0 171 0 171 67 -3 67 -3 55 -95z"/>
<path d="M280 475 l0 -35 55 0 c59 0 82 18 64 52 -8 14 -22 18 -64 18 l-55 0
0 -35z"/>
<path d="M719 430 l-16 -50 34 0 c37 0 38 4 9 72 l-11 28 -16 -50z"/>
<path d="M1883 483 c-30 -72 0 -163 53 -163 46 0 70 49 61 126 -6 56 -21 74
-64 74 -30 0 -36 -5 -50 -37z"/>
<path d="M1480 425 l0 -95 43 0 c69 0 105 53 85 126 -10 38 -52 64 -103 64
-25 0 -25 0 -25 -95z"/>
<path d="M2740 710 c0 -5 5 -10 11 -10 5 0 7 5 4 10 -3 6 -8 10 -11 10 -2 0
-4 -4 -4 -10z"/>
</g>
</svg>
