<?xml version="1.0" standalone="no"?>
<!DOCTYPE svg PUBLIC "-//W3C//DTD SVG 20010904//EN"
 "http://www.w3.org/TR/2001/REC-SVG-20010904/DTD/svg10.dtd">
<svg version="1.0" xmlns="http://www.w3.org/2000/svg"
 width="318.000000pt" height="192.000000pt" viewBox="0 0 318.000000 192.000000"
 preserveAspectRatio="xMidYMid meet">

<g transform="translate(0.000000,192.000000) scale(0.100000,-0.100000)"
fill="#000000" stroke="none">
<path d="M1525 1747 c-27 -7 -61 -20 -75 -27 -24 -14 -24 -15 30 -21 108 -13
310 -6 310 10 0 13 -101 43 -157 47 -32 2 -80 -2 -108 -9z"/>
<path d="M1280 1663 c-35 -44 -80 -133 -80 -161 0 -11 6 -24 13 -31 11 -8 17
1 30 43 17 54 90 166 108 166 6 0 7 5 4 10 -13 21 -45 9 -75 -27z"/>
<path d="M1860 1691 c0 -5 7 -11 15 -15 24 -9 91 -120 104 -172 12 -47 12 -47
32 -28 18 19 18 23 6 60 -15 42 -37 79 -76 132 -18 23 -33 32 -53 32 -15 0
-28 -4 -28 -9z"/>
<path d="M1346 1639 c-47 -52 -81 -115 -91 -171 -5 -28 -2 -40 18 -64 49 -58
122 -181 158 -264 34 -79 39 -86 75 -97 51 -15 170 -15 213 1 39 14 36 9 89
127 40 87 105 193 148 239 21 23 23 29 13 65 -27 97 -122 224 -158 209 -28
-11 -304 -16 -364 -6 l-58 9 -43 -48z m281 -26 c4 -10 14 -24 22 -30 14 -12
14 -14 -1 -26 -13 -11 -15 -16 -6 -25 26 -26 60 -4 37 24 -10 12 -9 16 9 21
12 3 22 12 22 19 0 8 5 14 10 14 13 0 13 -1 -10 -55 l-20 -47 24 6 c31 8 40
-5 22 -30 -12 -16 -11 -22 10 -47 28 -34 32 -59 7 -50 -16 6 -16 5 0 -17 18
-26 22 -86 8 -108 -7 -11 -9 -11 -14 2 -4 9 -13 16 -22 16 -8 0 -15 5 -15 10
0 15 11 12 32 -7 17 -15 18 -14 18 19 0 20 -9 46 -20 61 -25 32 -25 35 3 39
l22 3 -23 23 c-16 16 -30 21 -45 17 -19 -5 -20 -4 -5 5 10 6 23 20 29 32 12
22 4 23 -45 2 -14 -5 -17 -4 -12 4 5 9 -10 12 -53 12 -33 0 -63 -4 -66 -10 -4
-6 7 -10 26 -10 31 0 32 0 14 -20 -10 -11 -24 -20 -31 -20 -8 0 -19 9 -26 20
-16 26 -54 26 -68 0 -9 -16 -8 -18 5 -14 19 8 105 -36 105 -52 0 -16 -23 -34
-57 -44 l-28 -8 34 -1 34 -1 -27 -25 c-38 -35 -36 -56 5 -35 20 11 28 -3 9
-15 -11 -7 -14 -64 -4 -89 8 -22 24 -20 24 2 0 10 6 27 14 37 13 19 15 18 21
-17 4 -20 5 -44 2 -55 -3 -10 -5 -1 -6 20 -1 36 -21 55 -21 20 0 -10 -4 -24
-9 -32 -14 -22 -53 46 -47 81 4 21 2 26 -9 21 -11 -4 -15 2 -15 20 0 14 5 29
10 32 16 10 12 22 -10 28 -11 3 -20 12 -20 21 0 12 6 15 23 11 15 -4 32 1 47
13 l23 18 -39 21 c-29 15 -46 18 -63 11 -32 -11 -35 -5 -17 30 17 33 43 46 70
36 21 -8 20 4 -4 66 -25 62 -25 71 -1 43 10 -12 21 -19 25 -16 12 12 18 -28 6
-42 -10 -12 -9 -16 4 -21 9 -3 23 -4 31 0 17 6 21 26 5 26 -5 0 -10 9 -10 20
0 11 4 20 9 20 5 0 11 9 14 20 6 25 25 26 34 3z m83 -127 c0 -2 -8 -10 -17
-17 -16 -13 -17 -12 -4 4 13 16 21 21 21 13z m-265 -73 c68 -5 95 -12 95 -23
0 -5 -6 -7 -14 -4 -8 3 -33 0 -55 -6 -51 -14 -74 -7 -96 27 -17 25 -17 26 1
18 11 -5 42 -10 69 -12z m255 -80 c-11 -24 -14 -25 -18 -9 -2 10 1 22 7 26 9
5 9 14 1 34 -15 41 -11 46 7 9 14 -28 15 -36 3 -60z m-26 38 c8 -12 -12 -63
-27 -73 -20 -13 -27 -9 -20 10 5 14 3 15 -8 5 -19 -18 -45 -17 -30 0 6 8 7 18
3 22 -4 5 1 5 11 2 11 -4 17 -1 17 9 0 8 5 12 10 9 6 -3 10 -15 10 -26 0 -12
4 -17 11 -13 6 3 9 19 7 35 -4 28 5 39 16 20z m50 -172 c-23 -39 -44 -49 -44
-20 0 11 -4 23 -10 26 -6 4 -10 -6 -10 -21 0 -34 -36 -74 -64 -73 -20 1 -20 1
-1 6 36 9 55 34 55 75 0 43 15 50 32 13 15 -33 23 -32 38 5 7 17 15 28 18 26
2 -3 -4 -20 -14 -37z"/>
<path d="M1410 1390 c20 -13 33 -13 25 0 -3 6 -14 10 -23 10 -15 0 -15 -2 -2
-10z"/>
<path d="M1908 1312 c-59 -90 -133 -230 -125 -238 14 -15 125 94 157 156 28
52 50 171 33 170 -5 -1 -34 -40 -65 -88z"/>
<path d="M1250 1362 c0 -45 25 -118 59 -170 31 -48 107 -119 118 -109 12 13
-153 307 -173 307 -2 0 -4 -13 -4 -28z"/>
<path d="M1947 1225 c-28 -59 -124 -153 -161 -159 -8 -1 -20 -7 -28 -14 -45
-36 -172 -54 -246 -33 -23 7 -32 6 -32 -2 1 -34 20 -42 135 -56 112 -13 132
-8 147 40 8 30 23 46 60 70 26 17 59 44 73 61 32 37 79 117 73 123 -2 3 -12
-11 -21 -30z m-196 -222 c-12 -20 -14 -14 -5 12 4 9 9 14 11 11 3 -2 0 -13 -6
-23z m-48 -40 c-7 -2 -19 -2 -25 0 -7 3 -2 5 12 5 14 0 19 -2 13 -5z"/>
<path d="M934 790 c-123 -18 -194 -92 -194 -202 l0 -27 -33 19 c-19 11 -84 27
-154 39 -151 24 -163 30 -127 65 25 26 91 21 118 -9 21 -23 31 -25 105 -25 88
0 91 2 65 56 -11 22 -31 41 -62 56 -41 20 -62 23 -172 23 -115 0 -129 -2 -168
-25 -74 -42 -95 -121 -48 -177 29 -34 68 -47 189 -64 100 -14 128 -28 111 -56
-8 -13 -26 -19 -66 -21 -49 -3 -58 0 -75 22 -18 22 -28 25 -106 28 l-87 3 0
-27 c0 -40 43 -84 103 -105 39 -13 81 -18 167 -18 106 1 121 3 172 28 39 19
59 36 68 57 l13 31 33 -40 c41 -47 96 -71 184 -78 72 -6 168 15 190 42 18 21
32 19 25 -5 -6 -19 -2 -20 73 -20 80 0 80 0 91 30 l10 30 105 0 104 0 7 -30 7
-30 148 0 149 0 3 119 3 120 89 -120 89 -119 88 0 89 0 0 210 0 210 -75 0 -74
0 -3 -110 -3 -111 -83 111 -83 111 -95 -3 -96 -3 1 -162 c1 -90 -2 -163 -7
-163 -4 0 -14 17 -21 38 -8 20 -36 95 -63 165 l-50 128 -126 -3 -126 -3 -47
-120 -46 -120 -79 -3 c-78 -3 -79 -3 -94 -35 -21 -45 -78 -60 -118 -30 -55 41
-65 130 -21 187 17 21 29 26 65 26 43 0 84 -24 84 -50 0 -6 35 -10 86 -10 l87
0 -6 37 c-16 95 -158 156 -313 133z m586 -257 c0 -2 -27 -3 -60 -3 l-60 0 21
53 c12 28 26 63 31 77 9 23 12 20 39 -50 16 -41 29 -76 29 -77z"/>
<path d="M2290 570 l0 -210 146 0 145 0 10 30 11 30 103 0 103 0 12 -30 c12
-30 13 -30 91 -30 44 0 79 3 79 8 0 4 -35 97 -78 207 l-77 200 -127 3 -126 3
-41 -108 c-23 -59 -52 -134 -64 -165 -12 -32 -24 -58 -27 -58 -3 0 -6 73 -7
163 l-2 162 -76 3 -75 3 0 -211z m448 37 c12 -33 22 -63 22 -68 0 -5 -25 -9
-55 -9 -30 0 -55 2 -55 4 0 19 54 145 60 139 4 -4 16 -34 28 -66z"/>
</g>
</svg>
