<?xml version="1.0" standalone="no"?>
<!DOCTYPE svg PUBLIC "-//W3C//DTD SVG 20010904//EN"
 "http://www.w3.org/TR/2001/REC-SVG-20010904/DTD/svg10.dtd">
<svg version="1.0" xmlns="http://www.w3.org/2000/svg"
 width="288.000000pt" height="228.000000pt" viewBox="0 0 288.000000 228.000000"
 preserveAspectRatio="xMidYMid meet">

<g transform="translate(0.000000,228.000000) scale(0.100000,-0.100000)"
fill="#000000" stroke="none">
<path d="M1528 2103 c7 -3 16 -2 19 1 4 3 -2 6 -13 5 -11 0 -14 -3 -6 -6z"/>
<path d="M1449 2061 c-123 -33 -216 -87 -310 -181 -142 -141 -198 -267 -206
-462 -9 -189 39 -339 152 -480 83 -104 247 -206 385 -239 77 -19 250 -16 330
5 196 52 367 191 455 371 195 396 -19 866 -447 985 -95 26 -264 27 -359 1z
m370 -121 c87 -31 202 -110 256 -177 194 -237 179 -580 -35 -793 -72 -72 -172
-130 -266 -155 -73 -19 -222 -19 -294 0 -385 102 -563 561 -345 890 78 117
210 213 345 250 81 22 255 14 339 -15z"/>
<path d="M1541 1889 c-24 -5 -46 -11 -49 -14 -5 -5 47 -131 108 -260 l28 -60
11 30 c6 17 38 89 71 160 33 70 58 130 57 132 -8 7 -112 23 -146 22 -20 -1
-56 -5 -80 -10z"/>
<path d="M1327 1799 c-25 -17 -65 -52 -87 -79 l-41 -49 25 -48 c28 -54 35 -53
9 2 -16 34 -14 53 5 41 5 -3 56 -111 113 -240 57 -130 106 -236 109 -236 3 0
23 41 44 90 l38 90 62 0 63 0 36 -82 c73 -169 88 -200 92 -196 9 8 35 78 30
78 -3 0 -10 -12 -16 -27 -12 -32 -18 -26 -51 52 -14 33 -38 86 -52 118 -18 40
-22 57 -13 57 7 0 32 -44 54 -97 l41 -97 25 54 c93 212 191 427 199 437 5 6
16 9 25 6 38 -15 -45 78 -121 135 -34 26 -66 31 -46 7 10 -12 1 -39 -48 -147
-33 -73 -74 -163 -90 -200 l-31 -68 -78 0 -78 1 -42 87 c-23 48 -40 74 -36 57
3 -16 2 -27 -2 -23 -4 4 -14 0 -22 -8 -9 -8 -22 -13 -29 -10 -8 3 -14 0 -14
-7 0 -21 -38 27 -69 89 -17 34 -31 69 -31 78 0 18 58 75 78 76 14 0 16 19 3
39 -6 9 -6 22 0 33 14 26 -1 22 -54 -13z"/>
<path d="M1129 1509 c-18 -63 -15 -194 5 -264 19 -64 59 -150 76 -160 5 -3 1
9 -10 28 -36 60 -61 150 -65 232 -4 78 -4 79 4 15 17 -148 101 -296 211 -371
30 -21 56 -36 58 -34 2 2 -12 39 -31 82 -51 115 -195 432 -217 477 l-18 39
-13 -44z"/>
<path d="M2100 1545 c0 -2 7 -30 15 -62 52 -200 -52 -429 -245 -541 -30 -17
-50 -32 -45 -32 24 0 124 67 170 114 93 95 145 222 145 353 0 80 -17 173 -31
173 -5 0 -9 -2 -9 -5z"/>
<path d="M2083 1500 c-6 -14 -56 -124 -111 -246 -116 -254 -133 -296 -129
-300 2 -2 26 12 54 31 95 64 168 168 198 280 15 61 18 177 5 230 l-7 30 -10
-25z"/>
<path d="M1601 1163 c-13 -27 -43 -92 -67 -145 l-43 -98 27 -7 c35 -10 179
-10 214 0 l27 7 -33 78 c-38 87 -97 212 -100 212 -1 0 -13 -21 -25 -47z"/>
<path d="M1740 890 c-23 -7 -23 -8 -3 -9 12 -1 25 4 28 9 3 6 5 10 3 9 -2 -1
-14 -5 -28 -9z"/>
<path d="M1154 1938 l-19 -23 23 19 c21 18 27 26 19 26 -2 0 -12 -10 -23 -22z"/>
<path d="M1064 1848 l-19 -23 23 19 c12 11 22 21 22 23 0 8 -8 2 -26 -19z"/>
<path d="M2341 1274 c0 -11 3 -14 6 -6 3 7 2 16 -1 19 -3 4 -6 -2 -5 -13z"/>
<path d="M2331 1224 c0 -11 3 -14 6 -6 3 7 2 16 -1 19 -3 4 -6 -2 -5 -13z"/>
<path d="M2321 1184 c0 -11 3 -14 6 -6 3 7 2 16 -1 19 -3 4 -6 -2 -5 -13z"/>
<path d="M2292 1105 c-17 -37 -14 -45 4 -12 9 16 14 31 11 33 -2 2 -9 -7 -15
-21z"/>
<path d="M2236 995 c-37 -62 -125 -155 -191 -200 -61 -43 -72 -56 -23 -28 48
26 199 181 226 231 31 56 21 54 -12 -3z"/>
<path d="M1160 826 c0 -2 8 -10 18 -17 15 -13 16 -12 3 4 -13 16 -21 21 -21
13z"/>
<path d="M1728 663 c6 -2 18 -2 25 0 6 3 1 5 -13 5 -14 0 -19 -2 -12 -5z"/>
<path d="M650 402 c0 -5 17 -58 39 -118 37 -104 40 -109 69 -112 27 -3 31 1
46 40 79 215 75 201 44 196 -19 -2 -28 -18 -53 -95 -16 -51 -32 -93 -35 -93
-3 0 -18 42 -35 93 -25 77 -34 93 -52 95 -13 2 -23 -1 -23 -6z"/>
<path d="M1088 298 c3 -115 10 -138 43 -138 20 0 26 24 9 35 -6 3 -10 52 -10
111 0 101 -1 104 -22 104 -23 0 -23 -2 -20 -112z"/>
<path d="M1190 290 c0 -113 1 -120 20 -120 16 0 20 7 20 35 0 44 8 44 40 0 18
-25 33 -35 53 -35 l29 0 -36 41 -35 42 29 36 c35 42 37 51 10 51 -12 0 -31
-16 -48 -40 -15 -21 -30 -39 -34 -40 -5 0 -8 34 -8 75 0 68 -2 75 -20 75 -19
0 -20 -7 -20 -120z"/>
<path d="M895 315 c-17 -16 -25 -35 -25 -59 0 -48 8 -65 41 -81 40 -21 74 -18
106 9 22 19 28 32 28 66 0 34 -6 47 -28 66 -38 32 -90 32 -122 -1z m103 -59
c4 -34 -13 -56 -44 -56 -43 0 -58 56 -23 91 18 18 23 19 42 6 12 -8 23 -26 25
-41z"/>
<path d="M1398 329 c-21 -12 -24 -64 -5 -76 6 -4 25 -12 41 -18 16 -5 31 -15
33 -22 6 -17 -30 -25 -60 -14 -20 8 -27 7 -31 -5 -6 -16 29 -34 67 -34 33 0
67 28 67 54 0 27 -18 44 -57 55 -41 11 -36 36 7 34 36 -2 58 16 37 29 -17 11
-79 9 -99 -3z"/>
<path d="M1540 330 c0 -7 10 -45 22 -86 19 -68 23 -74 48 -74 23 0 28 6 44 55
9 31 21 53 26 50 4 -3 14 -28 21 -55 11 -45 16 -50 40 -50 25 0 29 5 49 73 25
85 25 92 3 92 -17 0 -41 -52 -42 -92 -2 -40 -16 -25 -34 37 -15 51 -21 60 -40
60 -19 0 -26 -10 -44 -62 -12 -37 -23 -57 -26 -48 -3 8 -11 35 -19 60 -8 28
-20 46 -30 48 -10 2 -18 -2 -18 -8z"/>
<path d="M1867 333 c-30 -8 -13 -28 25 -29 61 -2 85 -34 25 -34 -64 0 -100
-55 -61 -94 18 -19 33 -20 69 -6 18 7 31 6 45 -2 25 -16 52 4 32 24 -7 7 -12
34 -12 60 0 75 -42 102 -123 81z m81 -109 c-4 -20 -40 -35 -58 -24 -23 14 -3
40 30 40 24 0 31 -4 28 -16z"/>
<path d="M2061 321 c-44 -44 -33 -123 21 -149 21 -10 33 -10 49 -2 26 14 33 8
24 -20 -6 -19 -13 -21 -51 -18 -31 2 -45 -1 -49 -11 -8 -19 -2 -23 47 -28 34
-4 49 0 71 17 26 21 27 24 27 126 0 84 -3 104 -14 104 -8 0 -18 -5 -21 -10 -4
-7 -12 -7 -25 0 -29 15 -58 12 -79 -9z m97 -74 c-3 -35 -7 -43 -26 -45 -31 -5
-52 15 -52 47 0 45 29 67 63 49 14 -7 17 -19 15 -51z"/>
<path d="M2279 327 c-87 -66 -8 -200 95 -161 34 13 16 33 -31 36 -36 2 -49 7
-51 21 -3 14 5 17 52 17 l56 0 0 34 c0 25 -7 39 -22 50 -27 19 -77 20 -99 3z
m81 -37 c10 -18 8 -20 -30 -20 -41 0 -49 7 -28 28 18 18 46 14 58 -8z"/>
<path d="M2450 255 c0 -78 2 -85 20 -85 16 0 19 8 22 63 3 62 3 62 36 65 l32
3 0 -65 c0 -64 1 -66 25 -66 24 0 25 2 25 65 0 52 -4 69 -20 85 -22 22 -51 26
-80 10 -13 -7 -21 -7 -25 0 -3 5 -13 10 -21 10 -11 0 -14 -18 -14 -85z"/>
</g>
</svg>
